<?xml version="1.0" encoding="UTF-8"?>
<svg width="188px" height="205px" viewBox="0 0 188 205" version="1.1" xmlns="http://www.w3.org/2000/svg" xmlns:xlink="http://www.w3.org/1999/xlink">
    <!-- Generator: Sketch 57.1 (83088) - https://sketch.com -->
    <title>Green Field Logo</title>
    <desc>Created with Sketch.</desc>
    <g id="Green-Field-Logo" stroke="none" stroke-width="1" fill="none" fill-rule="evenodd">
        <text id="Farm" font-family="LucidaGrande, Lucida Grande" font-size="40.18" font-weight="normal" fill="#343433">
            <tspan x="90" y="192">Farm</tspan>
        </text>
        <text id="Josh" font-family="LucidaGrande, Lucida Grande" font-size="40.18" font-weight="normal" fill="#88B740">
            <tspan x="7" y="192">Josh</tspan>
        </text>
        <path d="M103.247563,71.5396006 L97.2621832,71.5396006 C99.4805068,75.5138821 101.895712,79.8404936 104.216374,84 L110,84 L103.660819,72.6439032 L108.387914,72.6439032 L103.261209,63.4571521 L106.689084,63.4571521 L100.854776,53 L99.0477583,56.2343887 L101.098441,59.9066732 L97,59.9066732 L103.247563,71.5396006" id="Fill-87" fill="#2A6D44"></path>
        <path d="M71.7826511,84 C74.1042885,79.8404936 76.5194932,75.5128755 78.7368421,71.5396006 L72.7524366,71.5396006 L79,59.9066732 L74.9025341,59.9066732 L76.9512671,56.2343887 L75.1461988,53 L69.3099415,63.4571521 L72.7397661,63.4571521 L67.6130604,72.6439032 L72.3382066,72.6439032 L66,84 L71.7826511,84" id="Fill-88" fill="#2A6D44"></path>
        <path d="M102.015192,86.2425861 L99.3637637,86.2425861 L99.3637637,89.4100027 C96.959536,89.2725942 94.5443437,89.1773109 92.1181869,89.1271618 L89.6800687,99.0717268 L89.6800687,83.1142857 L99.8442105,83.1142857 L91.6357465,68.7846842 L97.7559613,68.7846842 L91.1164253,57.1932231 L95.5580666,57.1932231 L88.0004984,44 L80.4419334,57.1932231 L84.8835747,57.1932231 L78.2440387,68.7846842 L84.3642535,68.7846842 L76.1557895,83.1142857 L86.320928,83.1142857 L86.320928,89.0910545 C83.0734264,89.118135 79.8448636,89.2234481 76.6372331,89.4059908 L76.6372331,86.2425861 L73.9848077,86.2425861 L73.9848077,89.5744917 C58.785942,90.6406614 44.0605456,93.4329629 30,97.7598265 C50.9203695,99.7447276 70.7981096,106.769612 88.1201117,118 C106.204649,106.642234 124.705839,99.8470317 146,97.7818921 C131.940451,93.4510165 117.214058,90.6516942 102.015192,89.5795066 L102.015192,86.2425861" id="Fill-89" fill="#2A6D44"></path>
        <path d="M118.652813,24.2097165 L110.420945,42.6995298 C115.094522,45.7572304 119.100731,49.7434107 122.174029,54.3947856 L140.751097,46.2030204 C135.425183,37.1047158 127.794546,29.5093318 118.652813,24.2097165 Z M127.22538,88.1611341 C133.810875,89.4476421 140.338251,91.0612623 146.77945,93 C148.217396,87.8489813 148.990982,82.4217125 149,76.8179228 L128.80662,78.9680866 C128.632263,82.1424704 128.090152,85.2211141 127.22538,88.1611341 Z M88.1072197,16 L90.2666448,36.0984471 C96.0795565,36.414589 101.566801,37.9394501 106.483877,40.4237071 L118.449396,24.0940305 C109.519097,18.9629577 99.1578645,16.0189486 88.1072197,16 Z M124.459713,58.3151446 C126.954825,63.2068671 128.487967,68.6690412 128.80662,74.4533409 L149,76.6035048 C148.980961,65.6053569 146.023901,55.2943439 140.868337,46.4044736 L124.459713,58.3151446 Z M69.5161232,40.4237071 C74.4321971,37.9394501 79.9204435,36.414589 85.7323532,36.0984471 L87.8917782,16 C76.8421355,16.0189486 66.4809035,18.9629577 57.5496016,24.0940305 L69.5161232,40.4237071 Z M27,76.6035048 L47.1933799,74.4533409 C47.5110308,68.6690412 49.0431704,63.2068671 51.5402875,58.3151446 L35.1316632,46.4044736 C29.9760986,55.2943439 27.019039,65.6053569 27,76.6035048 Z M27,76.8179228 C27.0100205,82.3878045 27.7735852,87.7821627 29.1944969,92.9052572 C35.6387023,90.9774897 42.1670801,89.3738424 48.7545791,88.0993019 C47.9008296,85.1772332 47.3667351,82.12053 47.1933799,78.9680866 L27,76.8179228 Z M57.3471869,24.2097165 L65.5770513,42.6995298 C60.9044764,45.7572304 56.8982669,49.7434107 53.8259713,54.3947856 L35.2489035,46.2030204 C40.5728131,37.1047158 48.2054538,29.5093318 57.3471869,24.2097165 L57.3471869,24.2097165 Z" id="Fill-90" fill="#F1A962"></path>
        <path d="M105.197549,130.456141 C119.21114,122.737068 135.083216,117.929103 151.980627,116.856013 C153.014012,115.113736 153.978975,113.326581 154.869477,111.496543 C135.293515,112.206618 116.949163,117.699725 100.99156,126.829972 C102.418376,128.006782 103.819031,129.215505 105.197549,130.456141 Z M96.593383,123.3524 C114.35111,112.790036 135.047998,106.583862 157.178746,106.225832 C157.8509,104.513475 158.457649,102.771198 159,101 C134.403013,101.038895 111.443141,108.004011 92,120.031404 C93.5535999,121.105492 95.0860691,122.211493 96.593383,123.3524 Z M113.02894,138.115376 C122.468267,133.288462 132.773946,129.895661 143.655183,128.226187 C145.316448,126.359248 146.884135,124.40754 148.352206,122.380036 C134.314466,123.794202 121.08673,127.920017 109.210345,134.220934 C110.507359,135.489495 111.78123,136.787975 113.02894,138.115376 Z M116.656354,142.133483 C123.05791,138.975045 129.862959,136.507735 136.980942,134.82729 C131.860301,139.290191 126.113793,143.062963 119.887319,146 C118.824753,144.698528 117.759169,143.405035 116.656354,142.133483 L116.656354,142.133483 Z" id="Fill-91" fill="#3D8F44"></path>
        <path d="M87.5009977,6 C46.9072312,6 14,38.9071363 14,79.5007857 C14,88.6250281 15.6731983,97.6355292 18.9637219,106.106258 C55.4538124,106.701903 88.0108393,123.474745 109.775388,149.564391 C111.540378,149.003667 113.276433,148.37809 114.979563,147.690654 C93.4973733,121.14305 61.450188,103.498192 25.2324786,101.149535 C22.2283044,93.5418423 20.5770562,85.2517024 20.5770562,76.5764386 C20.5770562,39.6165224 50.5399772,9.65368786 87.5009977,9.65368786 C124.462018,9.65368786 154.423942,39.6165224 154.423942,76.5764386 C154.423942,83.6074431 153.340403,90.3850241 151.328974,96.7505425 C153.895143,96.6198399 156.44036,96.5809284 159.006529,96.5769375 C160.310566,91.0974034 161,85.3784141 161,79.5007857 C161,38.9071363 128.094764,6 87.5009977,6 Z M21.2545169,111.379262 C22.1375107,113.210097 23.0943367,114.99803 24.1190085,116.741064 C53.4044688,118.618792 79.5819906,131.912549 98.2505735,152.219351 C100.270983,151.923025 102.264454,151.545883 104.22899,151.088923 C83.908161,127.720087 54.3583015,112.591504 21.2545169,111.379262 Z M74.9036203,151.924023 C64.4523667,143.836422 52.2640599,137.883964 38.9942104,134.722157 C48.9465975,143.471253 61.2835666,149.572373 74.9036203,151.924023 Z M27.7168339,122.267491 C52.6392075,124.801726 74.9884277,136.03517 91.6814992,152.882842 C89.189162,153.022524 86.6898408,153.03749 84.1965059,152.926742 C70.0366786,140.049038 52.1642866,131.181213 32.3752494,128.116186 C30.7269944,126.248435 29.1715286,124.296875 27.7168339,122.267491 L27.7168339,122.267491 Z" id="Fill-92" fill="#88B740"></path>
    </g>
</svg>